<?xml version="1.0" encoding="UTF-8"?>
<svg width="70px" height="101px" viewBox="0 0 70 101" version="1.1" xmlns="http://www.w3.org/2000/svg" xmlns:xlink="http://www.w3.org/1999/xlink">
    <!-- Generator: sketchtool 48.2 (47327) - http://www.bohemiancoding.com/sketch -->
    <title>B6984564-37F8-499C-9A7D-3CCA8A9AA936</title>
    <desc>Created with sketchtool.</desc>
    <defs></defs>
    <g id="Navigation" stroke="none" stroke-width="1" fill="none" fill-rule="evenodd" transform="translate(-94.000000, -56.000000)">
        <g id="Logo" transform="translate(94.000000, 56.000000)" fill="#134A87">
            <polygon id="Fill-1" points="0 15.497664 0 19 35 3.50529485 70 19 70 15.497664 35 0"></polygon>
            <polygon id="Fill-2" points="40.3269602 36.5327096 40.3269602 52 62 52 62 20.5299428 40.3269602 11 40.3269602 25.9260458 28.6710925 25.9260458 28.6710925 11 7 20.5299428 7 52 28.6710925 52 28.6710925 36.5327096"></polygon>
            <polygon id="Fill-3" points="8 58 13.0943016 58 12.1512859 59.6337163 12.1512859 66.1045721 18 66.1045721 18 68.3163423 12.1512859 68.3163423 12.1512859 77.3859789 13.0943016 79 8 79 8.94503278 77.5238453 8.94503278 59.6337163"></polygon>
            <polygon id="Fill-4" points="27 58 21.9056984 58 22.8487141 59.6337163 22.8487141 66.1045721 17 66.1045721 17 68.3163423 22.8487141 68.3163423 22.8487141 77.3859789 21.9056984 79 27 79 26.0559758 77.5238453 26.0559758 59.6337163"></polygon>
            <path d="M37.82625,61.3990654 L34.9163889,68.4846038 L41.0083333,68.4846038 L37.82625,61.3990654 Z M35.1895833,57.7222769 C35.6436111,57.6766327 40.0973611,57.7222769 40.0973611,57.7222769 L48.2834722,76.6112192 L50.1919444,78.6574404 L44.1894444,78.6574404 C44.1894444,78.6574404 45.1004167,77.8416712 44.6454167,76.6112192 C44.4305556,76.0343538 42.1895833,71.1193442 42.1895833,71.1193442 L33.9159722,71.1193442 C33.9159722,71.1193442 32.0065278,75.6575462 31.6429167,76.6112192 C31.2793056,77.5648923 31.8247222,78.6574404 31.8247222,78.6574404 L26.6427778,78.6574404 C26.6427778,78.6574404 27.9144444,78.0193923 28.6426389,76.6112192 L35.7340278,59.4926904 C35.7340278,59.4926904 35.9168056,58.3117673 35.1895833,57.7222769 Z" id="Fill-5"></path>
            <path d="M47.02775,59.2728212 L45.19025,57.6762442 L50.1028889,57.6762442 L55.7388611,65.8485038 L60.7399722,58.855225 C60.7399722,58.855225 60.1935833,58.31235 59.6481667,57.6762442 L64.2856667,57.6762442 L64.4674722,58.1278308 L57.0105278,68.9377442 C57.0105278,68.9377442 56.9210833,75.9300519 57.0105278,76.7963212 C57.1019167,77.6557923 59.0123333,78.6580231 59.0123333,78.6580231 L52.1921944,78.6580231 C52.1921944,78.6580231 52.9903889,78.1627346 53.4658056,76.9759846 C53.5571944,76.7477635 53.4658056,68.9377442 53.4658056,68.9377442 L47.02775,59.2728212 Z" id="Fill-7"></path>
            <polygon id="Fill-9" points="7.91048611 82.195451 10.6297917 82.195451 10.1271528 83.091826 10.1271528 86.6258548 13.2479861 86.6258548 13.2479861 87.8339702 10.1271528 87.8339702 10.1271528 92.7868548 10.6297917 93.6676913 7.91048611 93.6676913 8.41506944 92.8626048 8.41506944 83.091826"></polygon>
            <polygon id="Fill-11" points="18.4848611 82.195451 15.7655556 82.195451 16.2701389 83.091826 16.2701389 86.6258548 13.1473611 86.6258548 13.1473611 87.8339702 16.2701389 87.8339702 16.2701389 92.7868548 15.7655556 93.6676913 18.4848611 93.6676913 17.9802778 92.8626048 17.9802778 83.091826"></polygon>
            <path d="M26.0955139,93.0165327 C28.3996806,93.0165327 30.2673194,90.8285231 30.2673194,88.1219173 C30.2673194,85.4172538 28.3996806,83.2243885 26.0955139,83.2243885 C23.7932917,83.2243885 21.9256528,85.4172538 21.9256528,88.1219173 C21.9256528,90.8285231 23.7932917,93.0165327 26.0955139,93.0165327 M19.7362083,88.1219173 C19.7362083,84.7840615 22.5838472,82.0735712 26.0955139,82.0735712 C29.6081528,82.0735712 32.4557917,84.7840615 32.4557917,88.1219173 C32.4557917,91.4636577 29.6081528,94.16735 26.0955139,94.16735 C22.5838472,94.16735 19.7362083,91.4636577 19.7362083,88.1219173" id="Fill-13"></path>
            <path d="M42.2031944,83.3610298 L41.7890278,82.320924 L44.3761111,82.3325779 L44.0795833,83.3610298 L44.0795833,91.6731356 L44.5627778,93.6474913 L42.5638889,93.6474913 C42.4909722,93.6474913 42.3713889,93.2784529 42.0884722,92.8025875 C41.4711111,93.582424 39.2806944,94.0971356 38.0751389,93.9320394 C37.54625,93.860174 34.1706944,93.5581452 34.1706944,89.9571067 L34.1706944,83.3610298 L33.8663889,82.409299 L36.6109722,82.3694817 L36.2288889,83.3610298 L36.2288889,90.0610202 C36.2288889,91.1147221 37.4509722,92.6015587 38.9793056,92.6219529 C40.7341667,92.6433183 42.1895833,91.4643375 42.2031944,90.2261163 L42.2031944,83.3610298 Z" id="Fill-15"></path>
            <path d="M53.284,82.195451 L53.3734444,84.1057106 C53.1021944,84.0144221 51.8285833,83.1976817 50.8281667,83.2889702 C49.8287222,83.3783163 48.7806667,83.2015663 48.6465,84.7408452 C48.4646944,86.8307683 54.6470556,87.0152875 54.6470556,90.2812779 C54.6470556,92.282826 53.284,93.4608356 52.2835833,93.6453548 C51.1159444,93.8560952 48.3733056,93.8240471 47.0092778,93.3714894 C46.4638611,92.9160183 46.2820556,90.9173837 46.2820556,90.9173837 C46.2820556,90.9173837 48.0106667,92.100249 49.0995556,92.282826 C49.7276111,92.3847971 52.4653889,92.4624894 52.5548333,91.191249 C52.7638611,88.2865279 46.3734444,88.375874 46.3734444,85.2866337 C46.3734444,82.6538356 48.2838611,81.8370952 50.3741389,81.8370952 C52.10275,81.8370952 53.284,82.195451 53.284,82.195451" id="Fill-17"></path>
            <path d="M62.1940278,81.9260529 L55.7394444,81.9260529 C55.7394444,81.9260529 56.3752778,82.5621587 56.3752778,83.1982644 L56.3752778,92.1892067 C56.3752778,93.004976 56.0106944,93.598351 56.0106944,93.598351 L63.1944444,93.598351 C63.1944444,93.598351 63.6494444,92.5514471 63.7408333,91.553101 C62.9231944,92.1892067 62.9231944,92.2367933 62.0122222,92.3261394 L59.19375,92.3261394 C58.6493056,92.3261394 58.5569444,91.1908606 58.5569444,89.918649 L58.5569444,88.012274 C60.1027778,87.7374375 61.3754167,88.3764567 61.3754167,88.3764567 L61.3754167,86.648774 L58.5569444,86.648774 L58.5569444,83.1982644 C58.5569444,83.1982644 61.3754167,83.1089183 62.4672222,83.745024 C62.2863889,83.0156875 62.1940278,81.9260529 62.1940278,81.9260529" id="Fill-19"></path>
            <polygon id="Fill-21" points="8.18222222 101 62.9222222 101 62.9222222 98.4565481 8.18222222 98.4565481"></polygon>
        </g>
    </g>
</svg>