<svg height="468pt" viewBox="-48 0 468 468.8" width="468pt" xmlns="http://www.w3.org/2000/svg"><path d="m36.398438 110.398438-32-17.597657v173.597657l32 17.601562zm0 0"/><path d="m156.398438 158.398438 143.203124-79.199219-97.601562-53.597657-141.601562 80zm0 0"/><path d="m185.199219 16-28.800781-16-143.199219 79.199219 31.199219 17.601562zm0 0"/><path d="m252.398438 175.199219c19.203124 0 38.402343 4.800781 56 13.601562v-96l-144 79.199219v173.601562l144-79.203124v-59.199219c-16.796876-10.398438-36-16.800781-56-16.800781h-48v-16h48zm0 0"/><path d="m52.398438 292.800781 96 52.800781v-173.601562l-96-52.800781zm0 0"/><path d="m324.398438 199.199219v20.800781c41.601562 39.199219 43.203124 105.601562 3.203124 146.398438-20 20.800781-47.203124 32-75.203124 32h-220.796876l42.398438-42.398438-11.199219-11.199219-62.402343 62.398438 70.402343 61.601562 10.398438-12-48-41.601562h219.199219c66.402343 0 120-53.597657 120-120 0-37.597657-17.597657-72.800781-48-96zm0 0"/></svg>